<?xml version="1.0" encoding="UTF-8"?>
<svg width="28px" height="26px" viewBox="0 0 28 26" version="1.1" xmlns="http://www.w3.org/2000/svg" xmlns:xlink="http://www.w3.org/1999/xlink">
    <!-- Generator: Sketch 56.3 (81716) - https://sketch.com -->
    <title>Group 3</title>
    <desc>Created with Sketch.</desc>
    <g id="Page-1" stroke="none" stroke-width="1" fill="none" fill-rule="evenodd">
        <g id="Desktop" transform="translate(-685.000000, -10.000000)" fill="#FFFFFF" fill-rule="nonzero">
            <g id="Group-3" transform="translate(685.000000, 10.000000)">
                <g id="ant-design:heart-fill-copy">
                    <g id="Icon">
                        <path d="M26.84375,5.8625 C26.4248737,4.89261541 25.8208953,4.01371528 25.065625,3.275 C24.3097875,2.53408113 23.4186345,1.94528362 22.440625,1.540625 C21.4264896,1.1193533 20.3387753,0.903722453 19.240625,0.906228035 C17.7,0.906228035 16.196875,1.328125 14.890625,2.125 C14.578125,2.315625 14.28125,2.525 14,2.753125 C13.71875,2.525 13.421875,2.315625 13.109375,2.125 C11.803125,1.328125 10.3,0.906228035 8.759375,0.906228035 C7.65,0.906228035 6.575,1.11875 5.559375,1.540625 C4.578125,1.946875 3.69375,2.53125 2.934375,3.275 C2.1781146,4.012882 1.57399343,4.89198979 1.15625,5.8625 C0.721875,6.871875 0.5,7.94375 0.5,9.046875 C0.5,10.0875 0.7125,11.171875 1.134375,12.275 C1.4875,13.196875 1.99375,14.153125 2.640625,15.11875 C3.665625,16.646875 5.075,18.240625 6.825,19.85625 C9.725,22.534375 12.596875,24.384375 12.71875,24.459375 L13.459375,24.934375 C13.7875,25.14375 14.209375,25.14375 14.5375,24.934375 L15.278125,24.459375 C15.4,24.38125 18.26875,22.534375 21.171875,19.85625 C22.921875,18.240625 24.33125,16.646875 25.35625,15.11875 C26.003125,14.153125 26.5125,13.196875 26.8625,12.275 C27.284375,11.171875 27.4969076,10.0875 27.4969076,9.046875 C27.5,7.94375 27.278125,6.871875 26.84375,5.8625 Z" id="Icon-Path"></path>
                    </g>
                </g>
            </g>
        </g>
    </g>
</svg>