<svg xmlns="http://www.w3.org/2000/svg" width="28" height="28" viewBox="0 0 28 28">
    <g fill="none" fill-rule="nonzero">
        <path fill="#000" d="M14 23.597a9.587 9.587 0 0 1-8-4.293c.035-2.65 5.339-4.107 7.997-4.107 2.659 0 7.963 1.458 7.998 4.107A9.587 9.587 0 0 1 14 23.597zm0-18.933a4.001 4.001 0 0 1 0 8 4 4 0 1 1 0-8zm0-4C6.635.664.667 6.632.667 13.997c0 7.364 5.968 13.334 13.333 13.334 7.363 0 13.333-5.97 13.333-13.334C27.333 6.632 21.363.664 14 .664z"/>
        <path d="M-2-2h32v32H-2z"/>
    </g>
</svg>
