<?xml version="1.0" encoding="UTF-8"?>
<svg width="28px" height="28px" viewBox="0 0 28 28" version="1.1" xmlns="http://www.w3.org/2000/svg" xmlns:xlink="http://www.w3.org/1999/xlink">
    <!-- Generator: Sketch 56.3 (81716) - https://sketch.com -->
    <title>mdi-account-circle copy</title>
    <desc>Created with Sketch.</desc>
    <g id="Page-1" stroke="none" stroke-width="1" fill="none" fill-rule="evenodd">
        <g id="Desktop" transform="translate(-768.000000, -9.000000)" fill="#FFFDFD" fill-rule="nonzero">
            <g id="Group-4" transform="translate(766.000000, 7.000000)">
                <g id="mdi-account-circle-copy">
                    <g id="Icon">
                        <path d="M16,25.597336 C12.7817367,25.5997509 9.77698227,23.9871994 8,21.304 C8.03466667,18.6546667 13.3386667,17.1973333 15.9973333,17.1973333 C18.656,17.1973333 23.96,18.6546667 23.9946667,21.304 C22.2187276,23.9856223 19.2163733,25.5979607 16,25.597336 Z M16,6.664 C18.1689184,6.7200059 19.8980452,8.49435864 19.8980452,10.664 C19.8980452,12.8336414 18.1689184,14.6079941 16,14.664 C13.790861,14.664 12,12.873139 12,10.664 C12,8.454861 13.790861,6.664 16,6.664 Z M16,2.664 C8.63466667,2.664 2.66666667,8.632 2.66666667,15.9973333 C2.66666667,23.3613333 8.63466667,29.3306667 16,29.3306667 C23.3626667,29.3306667 29.3333333,23.3613333 29.3333333,15.9973333 C29.3333333,8.632 23.3626667,2.664 16,2.664 Z" id="Icon-Shape"></path>
                    </g>
                </g>
            </g>
        </g>
    </g>
</svg>