<?xml version="1.0" encoding="UTF-8"?>
<svg width="26px" height="24px" viewBox="0 0 26 24" version="1.1" xmlns="http://www.w3.org/2000/svg" xmlns:xlink="http://www.w3.org/1999/xlink">
    <!-- Generator: Sketch 56.3 (81716) - https://sketch.com -->
    <title>typcn-shopping-cart copy</title>
    <desc>Created with Sketch.</desc>
    <g id="Page-1" stroke="none" stroke-width="1" fill="none" fill-rule="evenodd">
        <g id="Desktop" transform="translate(-833.000000, -11.000000)" fill="#FFFFFF" fill-rule="nonzero">
            <g id="Group-2" transform="translate(831.000000, 7.000000)">
                <g id="typcn-shopping-cart-copy">
                    <g id="Icon" transform="translate(2.000000, 4.000000)">
                        <path d="M25.6746667,3.12666667 C25.4209766,2.83480808 25.0533706,2.66705136 24.6666667,2.66666667 L6.24133333,2.66666667 L5.98133333,1.11466667 C5.87444519,0.471733812 5.31842402,0.000300040701 4.66666667,0 L1.66666667,0 C0.930287,0 0.333333333,0.596953667 0.333333333,1.33333333 C0.333333333,2.069713 0.930287,2.66666667 1.66666667,2.66666667 L3.53733333,2.66666667 L6.01733333,17.552 L6.07733333,17.7173333 L6.14933333,17.9186667 L6.30933333,18.1573333 L6.436,18.3066667 L6.69333333,18.48 L6.84266667,18.5666667 C6.99773119,18.6314769 7.16394087,18.6654434 7.332,18.6666667 L22,18.6666667 C22.7363797,18.6666667 23.3333333,18.069713 23.3333333,17.3333333 C23.3333333,16.5969537 22.7363797,16 22,16 L8.46266667,16 L8.24133333,14.6666667 L23.3333333,14.6666667 C23.9966387,14.6667551 24.559144,14.1792505 24.6533333,13.5226667 L25.9866667,4.18933333 C26.0413004,3.80665479 25.9275054,3.419071 25.6746667,3.12666667 L25.6746667,3.12666667 Z M23.1293333,5.33333333 L22.7493333,8 L18,8 L18,5.33333333 L23.1293333,5.33333333 Z M16.6666667,5.33333333 L16.6666667,8 L12.6666667,8 L12.6666667,5.33333333 L16.6666667,5.33333333 Z M16.6666667,9.33333333 L16.6666667,12 L12.6666667,12 L12.6666667,9.33333333 L16.6666667,9.33333333 Z M11.3333333,5.33333333 L11.3333333,8 L7.33333333,8 L7.136,8.04 L6.68533333,5.33333333 L11.3333333,5.33333333 Z M7.352,9.33333333 L11.3333333,9.33333333 L11.3333333,12 L7.796,12 L7.352,9.33333333 L7.352,9.33333333 Z M18,12 L18,9.33333333 L22.5573333,9.33333333 L22.1773333,12 L18,12 Z" id="Icon-Shape"></path>
                        <circle id="Icon-Oval" cx="9.33333333" cy="22" r="2"></circle>
                        <circle id="Icon-Oval" cx="21.3333333" cy="22" r="2"></circle>
                    </g>
                </g>
            </g>
        </g>
    </g>
</svg>