<svg xmlns="http://www.w3.org/2000/svg" width="26" height="24" viewBox="0 0 26 24">
    <g fill="none" fill-rule="nonzero">
        <g fill="#000" transform="translate(-2 -4)">
            <path d="M27.675 7.127a1.337 1.337 0 0 0-1.008-.46H8.24l-.26-1.552A1.333 1.333 0 0 0 6.667 4h-3a1.333 1.333 0 1 0 0 2.667h1.87l2.48 14.885.06.165.072.202.16.238.127.15.257.173.15.087c.155.064.32.098.489.1H24A1.333 1.333 0 0 0 24 20H10.463l-.222-1.333h15.092c.664 0 1.226-.488 1.32-1.144l1.334-9.334c.054-.382-.06-.77-.312-1.062zm-2.546 2.206L24.75 12H20V9.333h5.13zm-6.462 0V12h-4V9.333h4zm0 4V16h-4v-2.667h4zm-5.334-4V12h-4l-.197.04-.45-2.707h4.647zm-3.981 4h3.981V16H9.796l-.444-2.667zM20 16v-2.667h4.557L24.177 16H20z"/>
            <circle cx="11.333" cy="26" r="2"/>
            <circle cx="23.333" cy="26" r="2"/>
        </g>
        <path d="M-2-4h32v32H-2z"/>
    </g>
</svg>
